name ./resultDataOpenSim/trcMotMarkerGrf/sub10/grf-04-02.mot
datacolumns 19
datarows 30
range 0.52400000 0.64000000
endheader

                time	     ground_force_vx	     ground_force_vy	     ground_force_vz	     ground_force_px	     ground_force_py	     ground_force_pz	   l_ground_force_vx	   l_ground_force_vy	   l_ground_force_vz	   l_ground_force_px	   l_ground_force_py	   l_ground_force_pz	     ground_torque_x	     ground_torque_y	     ground_torque_z	   l_ground_torque_x	   l_ground_torque_y	   l_ground_torque_z	
          0.52400000	          4.68199934	        504.00714619	        -16.23191649	         -0.82482699	          0.00000000	          0.01652353	          0.00000000	          0.00000000	          0.00000000	          0.00000000	          0.00000000	          0.00000000	          0.00000000	          2.50408954	          0.00000000	          0.00000000	          0.00000000	          0.00000000	
          0.52800000	          5.88223698	        504.39253790	        -17.32203146	         -0.82359237	          0.00000000	          0.01657874	          0.00000000	          0.00000000	          0.00000000	          0.00000000	          0.00000000	          0.00000000	          0.00000000	          2.55626011	          0.00000000	          0.00000000	          0.00000000	          0.00000000	
          0.53200000	          7.58149886	        504.60582623	        -18.35898137	         -0.82245200	          0.00000000	          0.01665144	          0.00000000	          0.00000000	          0.00000000	          0.00000000	          0.00000000	          0.00000000	          0.00000000	          2.60234533	          0.00000000	          0.00000000	          0.00000000	          0.00000000	
          0.53600000	          9.76265846	        504.68629833	        -19.15169638	         -0.82140371	          0.00000000	          0.01672843	          0.00000000	          0.00000000	          0.00000000	          0.00000000	          0.00000000	          0.00000000	          0.00000000	          2.65384382	          0.00000000	          0.00000000	          0.00000000	          0.00000000	
          0.54000000	         12.33151137	        504.69778433	        -19.57294000	         -0.82043257	          0.00000000	          0.01680024	          0.00000000	          0.00000000	          0.00000000	          0.00000000	          0.00000000	          0.00000000	          0.00000000	          2.71965496	          0.00000000	          0.00000000	          0.00000000	          0.00000000	
          0.54400000	         15.14478416	        504.71089656	        -19.58439827	         -0.81951701	          0.00000000	          0.01686161	          0.00000000	          0.00000000	          0.00000000	          0.00000000	          0.00000000	          0.00000000	          0.00000000	          2.80408647	          0.00000000	          0.00000000	          0.00000000	          0.00000000	
          0.54800000	         18.04946519	        504.78281412	        -19.24452248	         -0.81863263	          0.00000000	          0.01691333	          0.00000000	          0.00000000	          0.00000000	          0.00000000	          0.00000000	          0.00000000	          0.00000000	          2.90603424	          0.00000000	          0.00000000	          0.00000000	          0.00000000	
          0.55200000	         20.91983944	        504.94787413	        -18.69606414	         -0.81775611	          0.00000000	          0.01696244	          0.00000000	          0.00000000	          0.00000000	          0.00000000	          0.00000000	          0.00000000	          0.00000000	          3.01948284	          0.00000000	          0.00000000	          0.00000000	          0.00000000	
          0.55600000	         23.68060381	        505.23011891	        -18.13318409	         -0.81687038	          0.00000000	          0.01701905	          0.00000000	          0.00000000	          0.00000000	          0.00000000	          0.00000000	          0.00000000	          0.00000000	          3.13512252	          0.00000000	          0.00000000	          0.00000000	          0.00000000	
          0.56000000	         26.31097709	        505.66298811	        -17.75648413	         -0.81596488	          0.00000000	          0.01709186	          0.00000000	          0.00000000	          0.00000000	          0.00000000	          0.00000000	          0.00000000	          0.00000000	          3.24264740	          0.00000000	          0.00000000	          0.00000000	          0.00000000	
          0.56400000	         28.83086139	        506.28919060	        -17.72863006	         -0.81503065	          0.00000000	          0.01718729	          0.00000000	          0.00000000	          0.00000000	          0.00000000	          0.00000000	          0.00000000	          0.00000000	          3.33322277	          0.00000000	          0.00000000	          0.00000000	          0.00000000	
          0.56800000	         31.27543663	        507.14075144	        -18.13997215	         -0.81405517	          0.00000000	          0.01731067	          0.00000000	          0.00000000	          0.00000000	          0.00000000	          0.00000000	          0.00000000	          0.00000000	          3.40163421	          0.00000000	          0.00000000	          0.00000000	          0.00000000	
          0.57200000	         33.66815926	        508.22020165	        -18.98985678	         -0.81302025	          0.00000000	          0.01746332	          0.00000000	          0.00000000	          0.00000000	          0.00000000	          0.00000000	          0.00000000	          0.00000000	          3.44769786	          0.00000000	          0.00000000	          0.00000000	          0.00000000	
          0.57600000	         36.00238581	        509.50064671	        -20.18840886	         -0.81190941	          0.00000000	          0.01763943	          0.00000000	          0.00000000	          0.00000000	          0.00000000	          0.00000000	          0.00000000	          0.00000000	          3.47661018	          0.00000000	          0.00000000	          0.00000000	          0.00000000	
          0.58000000	         38.23693636	        510.94721741	        -21.57924965	         -0.81071533	          0.00000000	          0.01782613	          0.00000000	          0.00000000	          0.00000000	          0.00000000	          0.00000000	          0.00000000	          0.00000000	          3.49807989	          0.00000000	          0.00000000	          0.00000000	          0.00000000	
          0.58400000	         40.30422723	        512.54521796	        -22.97627401	         -0.80943085	          0.00000000	          0.01800907	          0.00000000	          0.00000000	          0.00000000	          0.00000000	          0.00000000	          0.00000000	          0.00000000	          3.52433948	          0.00000000	          0.00000000	          0.00000000	          0.00000000	
          0.58800000	         42.12628588	        514.32242094	        -24.20583683	         -0.80804664	          0.00000000	          0.01818066	          0.00000000	          0.00000000	          0.00000000	          0.00000000	          0.00000000	          0.00000000	          0.00000000	          3.56742975	          0.00000000	          0.00000000	          0.00000000	          0.00000000	
          0.59200000	         43.63439845	        516.35365376	        -25.14579981	         -0.80655598	          0.00000000	          0.01833669	          0.00000000	          0.00000000	          0.00000000	          0.00000000	          0.00000000	          0.00000000	          0.00000000	          3.63638306	          0.00000000	          0.00000000	          0.00000000	          0.00000000	
          0.59600000	         44.79022240	        518.73323727	        -25.75179488	         -0.80495584	          0.00000000	          0.01847357	          0.00000000	          0.00000000	          0.00000000	          0.00000000	          0.00000000	          0.00000000	          0.00000000	          3.73499443	          0.00000000	          0.00000000	          0.00000000	          0.00000000	
          0.60000000	         45.60430162	        521.53761725	        -26.06595086	         -0.80325004	          0.00000000	          0.01858876	          0.00000000	          0.00000000	          0.00000000	          0.00000000	          0.00000000	          0.00000000	          0.00000000	          3.86073229	          0.00000000	          0.00000000	          0.00000000	          0.00000000	
          0.60400000	         46.14345202	        524.81996301	        -26.20672335	         -0.80145380	          0.00000000	          0.01867871	          0.00000000	          0.00000000	          0.00000000	          0.00000000	          0.00000000	          0.00000000	          0.00000000	          4.00506335	          0.00000000	          0.00000000	          0.00000000	          0.00000000	
          0.60800000	         46.52024222	        528.63039120	        -26.33903836	         -0.79959131	          0.00000000	          0.01875340	          0.00000000	          0.00000000	          0.00000000	          0.00000000	          0.00000000	          0.00000000	          0.00000000	          4.15513413	          0.00000000	          0.00000000	          0.00000000	          0.00000000	
          0.61200000	         46.86640291	        533.02516737	        -26.63242496	         -0.79768078	          0.00000000	          0.01882678	          0.00000000	          0.00000000	          0.00000000	          0.00000000	          0.00000000	          0.00000000	          0.00000000	          4.29642698	          0.00000000	          0.00000000	          0.00000000	          0.00000000	
          0.61600000	         47.30040138	        538.05747654	        -27.21955449	         -0.79574217	          0.00000000	          0.01890255	          0.00000000	          0.00000000	          0.00000000	          0.00000000	          0.00000000	          0.00000000	          0.00000000	          4.41577425	          0.00000000	          0.00000000	          0.00000000	          0.00000000	
          0.62000000	         47.90188009	        543.76683065	        -28.16490768	         -0.79378853	          0.00000000	          0.01898292	          0.00000000	          0.00000000	          0.00000000	          0.00000000	          0.00000000	          0.00000000	          0.00000000	          4.50404767	          0.00000000	          0.00000000	          0.00000000	          0.00000000	
          0.62400000	         48.70263681	        550.16920650	        -29.45216885	         -0.79183006	          0.00000000	          0.01907225	          0.00000000	          0.00000000	          0.00000000	          0.00000000	          0.00000000	          0.00000000	          0.00000000	          4.55793209	          0.00000000	          0.00000000	          0.00000000	          0.00000000	
          0.62800000	         49.69677939	        557.24230475	        -30.99137738	         -0.78988674	          0.00000000	          0.01917169	          0.00000000	          0.00000000	          0.00000000	          0.00000000	          0.00000000	          0.00000000	          0.00000000	          4.58038457	          0.00000000	          0.00000000	          0.00000000	          0.00000000	
          0.63200000	         50.86376349	        564.92175509	        -32.63815107	         -0.78798412	          0.00000000	          0.01927202	          0.00000000	          0.00000000	          0.00000000	          0.00000000	          0.00000000	          0.00000000	          0.00000000	          4.57964841	          0.00000000	          0.00000000	          0.00000000	          0.00000000	
          0.63600000	         52.19368995	        573.12263289	        -34.22066136	         -0.78614945	          0.00000000	          0.01935738	          0.00000000	          0.00000000	          0.00000000	          0.00000000	          0.00000000	          0.00000000	          0.00000000	          4.56702579	          0.00000000	          0.00000000	          0.00000000	          0.00000000	
          0.64000000	         53.70582265	        581.76925158	        -35.57466885	         -0.78441499	          0.00000000	          0.01941148	          0.00000000	          0.00000000	          0.00000000	          0.00000000	          0.00000000	          0.00000000	          0.00000000	          4.55395309	          0.00000000	          0.00000000	          0.00000000	          0.00000000	
